# xmcd
#
# Track frame offsets:
#	150
#	11705
#	24742
#	38325
#	52462
#	66362
#	80512
#	93780
#	112087
#	128175
#	140540
#	155687
#	168870
#	187930
#
# Disc length: 2688 seconds
#
# Revision: 0
# Processed by: cddbd v1.4PL0 Copyright (c) Steve Scherf et al.
# Submitted via: dBpowerAMP V4.0
#
DISCID=bc0a7e0e
DTITLE=Ronnie McDowell - Drifters
DYEAR=1900
DGENRE=Blues
TTITLE0=Honey Love
TTITLE1=Don't Let Go
TTITLE2=For Your Precious Love
TTITLE3=Without Love
TTITLE4=Smokey Love
TTITLE5=Cry To Me
TTITLE6=Lite Lunch
TTITLE7=I Wanna Shag With You
TTITLE8=There's Always Me
TTITLE9=My Happiness Forever
TTITLE10=Boardwalk Girl
TTITLE11=Kiss The Girl
TTITLE12=Picnic On The Beach
TTITLE13=Shama Lama Ding Dong
EXTD=
EXTT0=
EXTT1=
EXTT2=
EXTT3=
EXTT4=
EXTT5=
EXTT6=
EXTT7=
EXTT8=
EXTT9=
EXTT10=
EXTT11=
EXTT12=
EXTT13=
PLAYORDER=
